<svg width="112" height="34" viewBox="0 0 112 34" fill="none" xmlns="http://www.w3.org/2000/svg">
<path d="M85.4054 24.1626C85.3075 24.4308 85.2031 24.6942 85.0889 24.9608C85.2015 24.6942 85.3075 24.434 85.4054 24.1626Z" fill="#263140"/>
<path d="M86.3043 20.4189C86.2717 20.7047 86.2293 20.9873 86.1787 21.2699C86.2277 20.9873 86.2701 20.7047 86.3043 20.4189Z" fill="#263140"/>
<path d="M86.4266 17.7289C86.4266 17.4543 86.4038 17.1813 86.3826 16.9067C86.4054 17.1734 86.4201 17.4464 86.4266 17.7289Z" fill="#263140"/>
<path d="M86.4299 18.7013C86.4299 18.4666 86.4299 18.2303 86.4299 17.9956C86.4381 18.2303 86.4364 18.465 86.4299 18.7013Z" fill="#263140"/>
<path d="M112 7.4636V20.8438C112 27.6736 105.649 33.4417 98.1307 33.4417C93.1182 33.4417 88.6262 30.8634 86.1982 27.1148C87.8854 24.0336 88.636 20.3553 88.3194 16.6131C88.0012 12.8262 86.611 9.30435 84.3789 6.58393C84.59 5.46744 85.1937 4.45842 86.0853 3.73177C86.977 3.00512 88.1004 2.60666 89.2609 2.60547C90.5771 2.60716 91.8388 3.1196 92.7693 4.03035C93.6998 4.9411 94.2232 6.17581 94.2245 7.4636V20.8438C94.2245 22.1785 95.9296 23.7287 98.1291 23.7287C100.116 23.7287 102.066 22.2998 102.066 20.8438V7.4636C102.067 6.82485 102.196 6.19249 102.447 5.60263C102.697 5.01277 103.064 4.47697 103.526 4.02583C103.988 3.57469 104.537 3.21706 105.14 2.97335C105.744 2.72964 106.39 2.60463 107.043 2.60547C108.358 2.60885 109.618 3.12203 110.547 4.0326C111.476 4.94317 111.999 6.17691 112 7.4636Z" fill="#263140"/>
<path d="M25.7854 9.95391C24.4845 12.4532 23.81 15.2195 23.8176 18.0242C23.8131 21.627 24.9272 25.1462 27.0124 28.1156V28.387C27.0111 29.6751 26.4876 30.91 25.5567 31.8208C24.6258 32.7316 23.3637 33.2439 22.0472 33.2451C20.7311 33.2434 19.4693 32.731 18.5388 31.8203C17.6083 30.9095 17.0849 29.6748 17.0837 28.387V22.8807H9.93202V28.387C9.93115 29.6749 9.40797 30.9099 8.47736 31.8207C7.54674 32.7316 6.28475 33.2439 4.96844 33.2451C3.65227 33.2434 2.39053 32.731 1.46001 31.8203C0.529487 30.9095 0.00617797 29.6748 0.00488281 28.387V7.65975C0.0066097 6.37224 0.530111 5.13794 1.46059 4.22753C2.39106 3.31712 3.65256 2.80491 4.96844 2.80322C6.28447 2.80449 7.54621 3.31657 8.47678 4.22707C9.40735 5.13757 9.93072 6.37211 9.93202 7.65975V13.1661H17.0837V7.65975C17.0854 6.37224 17.6089 5.13794 18.5394 4.22753C19.4698 3.31712 20.7313 2.80491 22.0472 2.80322C23.3634 2.80449 24.6253 3.31651 25.5561 4.22697C26.487 5.13743 27.0107 6.37196 27.0124 7.65975V7.93594C26.5584 8.5814 26.1485 9.25552 25.7854 9.95391Z" fill="#263140"/>
<path d="M69.9336 12.4746C69.7134 12.4746 69.4898 12.4746 69.2646 12.4746C69.5469 12.4746 69.826 12.4746 70.1001 12.4746H69.9336ZM77.8701 32.236C78.0839 32.145 78.2944 32.0508 78.4999 31.9502C78.2944 32.0492 78.0839 32.145 77.8701 32.236ZM85.0887 24.9544C85.2029 24.6942 85.3073 24.4307 85.4052 24.1561C85.3073 24.4339 85.2012 24.6942 85.0887 24.9544ZM86.1786 21.2697C86.2292 20.9871 86.2716 20.7045 86.3042 20.4188C86.27 20.7045 86.2276 20.9871 86.1786 21.2697ZM86.3826 16.8985C86.4038 17.1731 86.4185 17.4461 86.4266 17.7207C86.4201 17.4461 86.4054 17.1731 86.3826 16.8985ZM86.4332 17.9953C86.4332 18.23 86.4332 18.4662 86.4332 18.7009C86.4364 18.4646 86.438 18.23 86.4332 17.9953Z" fill="#263140"/>
<path d="M86.4331 17.9954C86.4053 15.1533 85.6663 12.3611 84.2809 9.86287C83.9251 9.23617 83.5243 8.63492 83.0816 8.06362C82.9005 7.83372 82.7161 7.60862 82.522 7.3899C81.6532 6.40313 80.6398 5.54771 79.5148 4.85148C79.1832 4.64535 78.8412 4.45566 78.4901 4.28313C78.1784 4.12348 77.857 3.98298 77.5323 3.85048C76.0121 3.2478 74.3982 2.90281 72.7596 2.83031C70.955 2.80317 68.9905 2.81914 67.1401 2.78721C65.1022 2.80317 63.0332 2.701 61.0148 2.95963C58.6897 3.51361 57.1086 5.73433 57.2832 8.06841C61.4325 13.8477 61.3509 22.3187 57.2832 27.9878C57.2302 28.8502 57.3985 29.7118 57.7727 30.4943C58.1782 31.3185 58.8132 32.014 59.6047 32.5008C60.3961 32.9877 61.3119 33.2462 62.2467 33.2467H66.2068C71.5652 33.2467 74.202 33.3026 75.5906 32.996C78.2745 32.3649 80.6987 30.9501 82.5416 28.9394C82.7047 28.7669 82.8548 28.5897 83.0033 28.4077C83.1518 28.2257 83.2709 28.0725 83.4014 27.9016C85.5145 25.0551 86.4837 21.4917 86.4331 17.9954ZM76.6071 18.527C76.5092 19.5679 76.2808 20.6264 75.6999 21.5141C75.5173 21.7976 75.2979 22.0568 75.0472 22.2852C74.558 22.7115 73.9777 23.0256 73.3487 23.2047C71.345 23.7763 69.2793 23.5241 67.207 23.5368V12.521C67.894 12.521 68.5858 12.4939 69.2711 12.4843C71.9046 12.4173 75.137 12.5593 76.1535 15.4171C76.5231 16.4118 76.6775 17.4708 76.6071 18.527Z" fill="#263140"/>
<path d="M51.2574 0.462891C51.3043 0.520862 51.3458 0.582848 51.3814 0.648089C51.346 0.582729 51.3045 0.520726 51.2574 0.462891ZM32.7183 0.858827C32.7388 0.785545 32.7667 0.714421 32.8015 0.646491C32.766 0.714119 32.7381 0.785316 32.7183 0.858827Z" fill="#263140"/>
<path d="M57.2767 12.1411C56.1747 9.43525 54.341 7.07377 51.9722 5.3097C51.9852 5.22349 51.5251 1.17638 51.5235 1.08858C51.4908 0.791209 51.347 0.516144 51.1195 0.316318C50.8921 0.116492 50.5972 0.00601812 50.2915 0.00614993C49.7221 -0.139131 46.7655 2.33543 46.2792 2.5781C43.539 1.87245 40.6588 1.87245 37.9185 2.5781C37.4094 2.32106 34.492 -0.126359 33.9062 0.00614993C33.6006 0.00668212 33.3059 0.117347 33.0783 0.31701C32.8508 0.516673 32.7064 0.791349 32.6727 1.08858C32.6727 1.17798 32.2174 5.2187 32.224 5.3081C19.9309 14.349 26.4756 33.9971 42.1021 33.9971C53.4651 34.2158 61.6023 22.1846 57.2767 12.1411ZM42.1021 24.2744C33.7153 24.1291 33.6892 11.9399 42.0695 11.7579C50.4906 11.8745 50.5216 24.1323 42.1021 24.2824V24.2744Z" fill="#263140"/>
</svg>
