<svg width="92" height="28" viewBox="0 0 92 28" fill="none" xmlns="http://www.w3.org/2000/svg">
<path d="M70.1543 19.8987C70.0739 20.1195 69.9881 20.3365 69.8943 20.556C69.9868 20.3365 70.0739 20.1222 70.1543 19.8987Z" fill="#263140"/>
<path d="M70.8927 16.8156C70.8659 17.0509 70.8311 17.2836 70.7896 17.5163C70.8298 17.2836 70.8646 17.0509 70.8927 16.8156Z" fill="#263140"/>
<path d="M70.9935 14.6002C70.9935 14.3741 70.9747 14.1492 70.9573 13.9231C70.976 14.1427 70.9881 14.3675 70.9935 14.6002Z" fill="#263140"/>
<path d="M70.9961 15.4009C70.9961 15.2076 70.9961 15.013 70.9961 14.8198C71.0025 15.013 71.0012 15.2063 70.9961 15.4009Z" fill="#263140"/>
<path d="M92 6.1463V17.1653C92 22.7898 86.7835 27.54 80.6074 27.54C76.49 27.54 72.8001 25.4167 70.8057 22.3297C72.1916 19.7922 72.8081 16.763 72.5481 13.6812C72.2868 10.5626 71.1448 7.66222 69.3113 5.42187C69.4846 4.50241 69.9805 3.67145 70.713 3.07303C71.4454 2.47462 72.3683 2.14648 73.3215 2.1455C74.4026 2.14689 75.4391 2.56889 76.2034 3.31892C76.9678 4.06896 77.3976 5.08577 77.3987 6.1463V17.1653C77.3987 18.2644 78.7993 19.5411 80.606 19.5411C82.2385 19.5411 83.8402 18.3643 83.8402 17.1653V6.1463C83.8407 5.62028 83.9469 5.09951 84.1526 4.61374C84.3584 4.12798 84.6597 3.68673 85.0393 3.3152C85.4189 2.94367 85.8694 2.64915 86.3651 2.44845C86.8608 2.24775 87.3919 2.1448 87.9281 2.1455C89.0084 2.14828 90.0434 2.57089 90.8066 3.32078C91.5698 4.07066 91.9989 5.08668 92 6.1463Z" fill="#263140"/>
<path d="M21.1808 8.19733C20.1122 10.2556 19.5581 12.5337 19.5643 14.8434C19.5606 17.8105 20.4758 20.7086 22.1887 23.154V23.3775C22.1876 24.4383 21.7576 25.4553 20.9929 26.2054C20.2283 26.9555 19.1915 27.3773 18.1101 27.3783C17.029 27.377 15.9925 26.9549 15.2282 26.2049C14.4638 25.4549 14.034 24.4381 14.0329 23.3775V18.8429H8.15834V23.3775C8.15763 24.4382 7.72787 25.4552 6.96344 26.2053C6.19901 26.9554 5.16237 27.3773 4.08112 27.3783C2.99998 27.377 1.96354 26.9549 1.19919 26.2049C0.434831 25.4549 0.00497013 24.4381 0.00390625 23.3775V6.30803C0.00532477 5.24772 0.435344 4.23124 1.19966 3.4815C1.96398 2.73175 3.00021 2.30992 4.08112 2.30853C5.16213 2.30958 6.19857 2.73129 6.96296 3.48111C7.72736 4.23093 8.15727 5.24761 8.15834 6.30803V10.8426H14.0329V6.30803C14.0343 5.24772 14.4643 4.23124 15.2287 3.4815C15.993 2.73175 17.0292 2.30992 18.1101 2.30853C19.1913 2.30958 20.2278 2.73124 20.9924 3.48103C21.757 4.23082 22.1872 5.24749 22.1887 6.30803V6.53548C21.8157 7.06703 21.479 7.62219 21.1808 8.19733Z" fill="#263140"/>
<path d="M57.4455 10.2733C57.2646 10.2733 57.081 10.2733 56.896 10.2733C57.1279 10.2733 57.3571 10.2733 57.5822 10.2733H57.4455ZM63.9648 26.5474C64.1404 26.4725 64.3133 26.3949 64.4821 26.312C64.3133 26.3936 64.1404 26.4725 63.9648 26.5474ZM69.8943 20.5508C69.9881 20.3365 70.0739 20.1195 70.1543 19.8934C70.0739 20.1222 69.9868 20.3365 69.8943 20.5508ZM70.7896 17.5163C70.8312 17.2836 70.866 17.0509 70.8928 16.8156C70.8647 17.0509 70.8298 17.2836 70.7896 17.5163ZM70.9571 13.9165C70.9746 14.1426 70.9866 14.3675 70.9933 14.5936C70.988 14.3675 70.9759 14.1426 70.9571 13.9165ZM70.9987 14.8198C70.9987 15.013 70.9987 15.2076 70.9987 15.4009C71.0014 15.2063 71.0027 15.013 70.9987 14.8198Z" fill="#263140"/>
<path d="M70.9986 14.8198C70.9757 12.4792 70.3688 10.1797 69.2307 8.12238C68.9384 7.60628 68.6092 7.11113 68.2456 6.64065C68.0968 6.45132 67.9454 6.26594 67.7859 6.08582C67.0722 5.27319 66.2398 4.56873 65.3157 3.99536C65.0433 3.8256 64.7624 3.66939 64.474 3.5273C64.218 3.39583 63.954 3.28013 63.6872 3.171C62.4385 2.67468 61.1128 2.39057 59.7668 2.33087C58.2845 2.30852 56.6707 2.32166 55.1508 2.29537C53.4768 2.30851 51.7773 2.22437 50.1193 2.43736C48.2094 2.89358 46.9106 4.72241 47.054 6.64459C50.4624 11.404 50.3954 18.3801 47.054 23.0488C47.0105 23.759 47.1487 24.4686 47.4561 25.113C47.7893 25.7917 48.3109 26.3645 48.961 26.7654C49.6111 27.1664 50.3633 27.3793 51.1312 27.3797H54.3842C58.7857 27.3797 60.9517 27.4257 62.0923 27.1732C64.2969 26.6534 66.2882 25.4883 67.802 23.8324C67.936 23.6904 68.0593 23.5445 68.1813 23.3946C68.3033 23.2447 68.4011 23.1185 68.5083 22.9778C70.244 20.6336 71.0402 17.6991 70.9986 14.8198ZM62.9273 15.2576C62.8469 16.1148 62.6592 16.9865 62.1821 17.7175C62.032 17.951 61.8518 18.1644 61.6459 18.3525C61.244 18.7036 60.7674 18.9623 60.2507 19.1098C58.6048 19.5805 56.908 19.3728 55.2058 19.3833V10.3115C55.77 10.3115 56.3383 10.2891 56.9013 10.2812C59.0645 10.226 61.7197 10.343 62.5547 12.6964C62.8582 13.5156 62.9851 14.3878 62.9273 15.2576Z" fill="#263140"/>
<path d="M42.1043 0.381088C42.1428 0.428829 42.1769 0.479876 42.2062 0.533605C42.1771 0.479779 42.143 0.428717 42.1043 0.381088ZM26.8757 0.707154C26.8926 0.646804 26.9155 0.588231 26.9441 0.532289C26.9149 0.587982 26.892 0.646615 26.8757 0.707154Z" fill="#263140"/>
<path d="M47.0487 9.99854C46.1435 7.77021 44.6373 5.82546 42.6914 4.37269C42.7021 4.30169 42.3241 0.968786 42.3228 0.896474C42.296 0.651584 42.1778 0.42506 41.991 0.260497C41.8042 0.0959344 41.562 0.0049561 41.3109 0.00506464C40.8431 -0.114578 38.4145 1.92329 38.0151 2.12314C35.7641 1.54202 33.3982 1.54202 31.1473 2.12314C30.7291 1.91146 28.3327 -0.10406 27.8515 0.00506464C27.6005 0.00550292 27.3583 0.0966385 27.1714 0.261067C26.9845 0.425495 26.8659 0.651699 26.8382 0.896474C26.8382 0.970101 26.4643 4.29775 26.4697 4.37138C16.3718 11.8169 21.7478 27.9976 34.5839 27.9976C43.9178 28.1777 50.6019 18.2697 47.0487 9.99854ZM34.5839 19.9907C27.6947 19.8711 27.6732 9.83288 34.5571 9.683C41.4744 9.77898 41.4999 19.8737 34.5839 19.9973V19.9907Z" fill="#263140"/>
</svg>
